<?xml version="1.0" encoding="UTF-8" standalone="no"?>
<svg width="46px" height="75px" viewBox="0 0 46 75" version="1.1" xmlns="http://www.w3.org/2000/svg" xmlns:xlink="http://www.w3.org/1999/xlink" xmlns:sketch="http://www.bohemiancoding.com/sketch/ns">
    <!-- Generator: Sketch 3.3.3 (12081) - http://www.bohemiancoding.com/sketch -->
    <title>Imported EPS</title>
    <desc>Created with Sketch.</desc>
    <defs></defs>
    <g id="Page-1" stroke="none" stroke-width="1" fill="none" fill-rule="evenodd" sketch:type="MSPage">
        <g id="Imported-EPS" sketch:type="MSLayerGroup" fill="#54910D">
            <path d="M23,34.6166667 C16.6478182,34.6166667 11.5,29.4416667 11.5,23.075 C11.5,16.7041667 16.6478182,11.5416667 23,11.5416667 C29.3563636,11.5416667 34.5,16.7041667 34.5,23.075 C34.5,29.4416667 29.3563636,34.6166667 23,34.6166667 L23,34.6166667 Z M46,23.0791667 C46,10.3375 35.7001818,0 23,0 C10.2998182,0 0,10.3375 0,23.0791667 C0,27.2875 1.14163636,31.2166667 3.09872727,34.6166667 L3.07781818,34.6166667 L22.9916364,75 L42.918,34.6166667 L42.8929091,34.6166667 C44.8583636,31.2166667 46,27.2875 46,23.0791667 L46,23.0791667 Z" id="Page-1" sketch:type="MSShapeGroup"></path>
        </g>
    </g>
</svg>